HIERARCHY
ROOT ui
{
	 OFFSET 0 0 0
	 CHANNELS 3 XPosition YPosition Z Position
	 EndSite
	 {
	 OFFSET 0 -1 0
	 }
}
ROOT li
{
	 OFFSET 0 0 0
	 CHANNELS 3 XPosition YPosition Z Position
	 EndSite
	 {
	 OFFSET 0 -1 0
	 }
}
ROOT ul
{
	 OFFSET 0 0 0
	 CHANNELS 3 XPosition YPosition Z Position
	 EndSite
	 {
	 OFFSET 0 -1 0
	 }
}
ROOT ll
{
	 OFFSET 0 0 0
	 CHANNELS 3 XPosition YPosition Z Position
	 EndSite
	 {
	 OFFSET 0 -1 0
	 }
}
ROOT tt
{
	 OFFSET 0 0 0
	 CHANNELS 3 XPosition YPosition Z Position
	 EndSite
	 {
	 OFFSET 0 -1 0
	 }
}
ROOT tb
{
	 OFFSET 0 0 0
	 CHANNELS 3 XPosition YPosition Z Position
	 EndSite
	 {
	 OFFSET 0 -1 0
	 }
}
ROOT td
{
	 OFFSET 0 0 0
	 CHANNELS 3 XPosition YPosition Z Position
	 EndSite
	 {
	 OFFSET 0 -1 0
	 }
}
ROOT v
{
	 OFFSET 0 0 0
	 CHANNELS 3 XPosition YPosition Z Position
	 EndSite
	 {
	 OFFSET 0 -1 0
	 }
}
ROOT bn
{
	 OFFSET 0 0 0
	 CHANNELS 3 XPosition YPosition Z Position
	 EndSite
	 {
	 OFFSET 0 -1 0
	 }
}
MOTION
Frames: 10
Frame Time: 0.002
-0.0012861130237579346	-0.0021371281147003172	0		0.5584329833984375	-2.775994140625	0		-0.8769948120117188	0.32481741333007813	0		-0.46471832275390623	-2.9815625	0		2.838218017578125	-0.4571408386230469	0		4.21702392578125	-0.385209228515625	0		5.39831982421875	-0.26425924682617186	0		5.98897412109375	0.46311798095703127	0		-0.3171734924316406	5.8893935546875	0		
0.009411697387695312	0.007950585842132568	0		0.5552322998046875	-2.758758056640625	0		-0.9463574829101562	0.3297117614746094	0		-0.48974237060546877	-2.947114013671875	0		2.85911376953125	-0.4281259765625	0		4.22490966796875	-0.3570471496582031	0		5.40688818359375	-0.2670932312011719	0		5.98868603515625	0.46357553100585935	0		-0.3166497802734375	5.88858056640625	0		
-0.007070087909698487	0.0023218390941619873	0		0.5350350952148437	-2.74033935546875	0		-0.8778279418945313	0.3252037353515625	0		-0.4777552795410156	-2.911037109375	0		2.862912109375	-0.40691854858398435	0		4.22143212890625	-0.3627472839355469	0		5.40565380859375	-0.24879789733886717	0		5.97732275390625	0.5474038696289063	0		-0.2991776428222656	5.8866005859375	0		
-0.0025486929416656495	-0.0015145560503005981	0		0.5346456909179688	-2.74011572265625	0		-0.8873521728515625	0.31749447631835936	0		-0.49592730712890626	-2.8896494140625	0		2.876674072265625	-0.3877970581054688	0		4.22406201171875	-0.3564894104003906	0		5.41812841796875	-0.2576200256347656	0		5.98682080078125	0.5061943054199218	0		-0.3138401794433594	5.87495263671875	0		
-0.003000670909881592	-0.0012954920530319214	0		0.53626904296875	-2.73790625	0		-0.8818515014648437	0.31363507080078123	0		-0.5049960632324219	-2.8573505859375	0		2.887381591796875	-0.3726323547363281	0		4.2236171875	-0.35618521118164065	0		5.40968212890625	-0.25721063232421876	0		5.9835654296875	0.48782504272460936	0		-0.32951116943359376	5.865318359375	0		
-0.0084235258102417	0.0029769880771636963	0		0.514968505859375	-2.727460205078125	0		-0.9522780151367187	0.3185458984375	0		-0.5670489501953125	-2.822513916015625	0		2.91126904296875	-0.33859072875976565	0		4.22837353515625	-0.33492095947265627	0		5.4212841796875	-0.2509900970458984	0		5.983234375	0.48844131469726565	0		-0.3821327819824219	5.8630595703125	0		
0.008083794593811035	0.0010286519527435303	0		0.562661376953125	-2.71770947265625	0		-0.8737208862304687	0.3219484558105469	0		-0.5252020263671875	-2.7977294921875	0		2.9250068359375	-0.31843939208984373	0		4.23386962890625	-0.33865582275390627	0		5.42794970703125	-0.23770712280273437	0		5.9929619140625	0.5078644409179688	0		-0.3146282043457031	5.87458642578125	0		
-0.0044109621047973635	-6.275089979171753E-4	0		0.5373093872070313	-2.712220458984375	0		-0.88328466796875	0.3142391662597656	0		-0.5223619995117188	-2.773552001953125	0		2.93974072265625	-0.2982917175292969	0		4.24353369140625	-0.3254229431152344	0		5.42035009765625	-0.25027027893066406	0		5.97989208984375	0.5347877197265625	0		-0.3152581481933594	5.87480078125	0		
-0.009844849586486817	0.003642038106918335	0		0.5580130615234375	-2.702196533203125	0		-0.88376806640625	0.3144332275390625	0		-0.5643922729492188	-2.736927734375	0		2.92048681640625	-0.27679708862304686	0		4.2561083984375	-0.3212109985351562	0		5.42701318359375	-0.2369644012451172	0		5.9759150390625	0.5182579956054687	0		-0.19679835510253907	5.88481591796875	0		
-0.008393285751342773	-0.004163726806640625	0		0.532682373046875	-2.696714599609375	0		-0.8892860717773438	0.3106694641113281	0		-0.5625530395507813	-2.714752685546875	0		2.93117724609375	-0.26160067749023436	0		4.2407509765625	-0.31071148681640626	0		5.4355419921875	-0.23766726684570313	0		5.9792177734375	0.5361734008789063	0		-0.3316676025390625	5.8643662109375	0		
